<svg width="34" height="35" fill="none" xmlns="http://www.w3.org/2000/svg"><path d="M25.5 13.492v-2.55c0-1.587 0-2.38-.309-2.986a2.834 2.834 0 0 0-1.238-1.238c-.606-.31-1.4-.31-2.986-.31H10.2c-1.587 0-2.38 0-2.986.31a2.833 2.833 0 0 0-1.238 1.238c-.31.606-.31 1.4-.31 2.986v15.3l5.667-2.833m17 5.666-3.107-2.072c-.425-.283-.637-.424-.867-.524a2.83 2.83 0 0 0-.636-.193c-.247-.044-.502-.044-1.012-.044h-6.844c-1.587 0-2.38 0-2.987-.309a2.834 2.834 0 0 1-1.238-1.238c-.309-.606-.309-1.4-.309-2.986v-3.684c0-1.586 0-2.38.31-2.986a2.834 2.834 0 0 1 1.237-1.238c.606-.309 1.4-.309 2.987-.309H23.8c1.587 0 2.38 0 2.986.309a2.83 2.83 0 0 1 1.239 1.238c.308.606.308 1.4.308 2.986v11.05Z" stroke="#C73509" stroke-width="2" stroke-linecap="round" stroke-linejoin="round"/></svg>