<svg width="27" height="28" fill="none" xmlns="http://www.w3.org/2000/svg"><path d="M24.75 9.742H22.5m0 0h-1.125c-2.25-2.248-5.625-4.5-7.875-2.25m9 2.25v9m-9-11.25-3.376 3.377a5.65 5.65 0 0 0-.17.174 2.25 2.25 0 0 0 .001 3.027c.036.04.081.084.17.174.09.089.134.133.174.17a2.25 2.25 0 0 0 3.027-.001c.04-.036.084-.08.173-.17l1.126-1.125M13.5 7.492c-2.25-2.25-5.625.002-7.875 2.25H4.5m-2.25 0H4.5m0 0v9m18 0v3.375h2.25m-2.25-3.375h-3.182m-2.443-3.375 1.688 1.688c.09.09.134.134.17.174a2.25 2.25 0 0 1 0 3.027c-.036.04-.08.084-.17.174-.09.09-.135.134-.175.17a2.25 2.25 0 0 1-3.026 0 4.836 4.836 0 0 1-.175-.17l-.562-.563c-.613.614-.92.92-1.251 1.084a2.25 2.25 0 0 1-1.998 0c-.33-.164-.638-.47-1.251-1.084a1.738 1.738 0 0 1-2.945-.265l-.43-.86H4.5m0 0v3.375H2.25" stroke="#C73509" stroke-width="2" stroke-linecap="round" stroke-linejoin="round"/></svg>